<?xml version="1.0" standalone="no"?>
<!DOCTYPE svg PUBLIC "-//W3C//DTD SVG 20010904//EN"
 "http://www.w3.org/TR/2001/REC-SVG-20010904/DTD/svg10.dtd">
<svg version="1.0" xmlns="http://www.w3.org/2000/svg"
 width="909.000000pt" height="720.000000pt" viewBox="0 0 909.000000 720.000000"
 preserveAspectRatio="xMidYMid meet">

<g transform="translate(0.000000,720.000000) scale(0.100000,-0.100000)"
fill="#000000" stroke="none">
<path d="M0 3600 l0 -3600 4545 0 4545 0 0 3600 0 3600 -4545 0 -4545 0 0
-3600z m985 2352 c42 -13 158 -81 175 -101 3 -4 34 -30 70 -60 72 -59 227
-202 424 -391 71 -69 750 -744 1508 -1500 758 -756 1381 -1376 1386 -1378 4
-1 617 606 1362 1350 1583 1580 1797 1790 1975 1933 28 22 55 45 60 51 46 48
172 106 250 115 178 19 381 -95 498 -282 52 -82 82 -264 57 -343 -5 -17 -14
-53 -21 -79 -9 -38 -28 -65 -83 -125 -134 -145 -269 -287 -335 -354 -36 -37
-147 -151 -246 -254 -263 -272 -2396 -2403 -2646 -2644 -117 -113 -239 -230
-269 -260 -31 -30 -74 -70 -96 -89 -21 -18 -64 -57 -94 -85 -80 -75 -207 -169
-270 -200 -51 -26 -61 -28 -145 -23 -118 8 -134 11 -174 31 -118 62 -524 453
-2094 2022 -1178 1178 -1638 1647 -1747 1784 -19 24 -48 59 -63 76 -42 49
-107 147 -107 162 0 8 -7 29 -16 48 -17 35 -16 76 6 189 23 125 162 297 299
369 120 63 224 75 336 38z"/>
</g>
</svg>
